  0
SECTION
  2
HEADER
  9
$ACADVER
  1
AC1009
  9
$INSBASE
 10
0.0
 20
0.0
 30
0.0
  9
$EXTMIN
 10
0.0
 20
0.0
 30
0.0
  9
$EXTMAX
 10
0.0
 20
0.0
 30
0.0
  0
ENDSEC
  0
SECTION
  2
TABLES
  0
TABLE
  2
VPORT
 70
0
  0
ENDTAB
  0
TABLE
  2
LTYPE
 70
1
  0
LTYPE
  2
CONTINUOUS
 70
0
  3
Solid line
 72
65
 73
0
 40
0.0
  0
ENDTAB
  0
TABLE
  2
LAYER
 70
1
  0
LAYER
  2
0
 70
64
 62
7
  6
continuous
  0
ENDTAB
  0
TABLE
  2
STYLE
 70
1
  0
STYLE
  2
STANDARD
 70
0
 40
0
 41
1.0
 50
0.0
 71
0
 42
1
 3
ARIAL.TTF
 4

  0
ENDTAB
  0
TABLE
  2
VIEW
 70
0
  0
ENDTAB
  0
ENDSEC
  0
SECTION
  2
BLOCKS
  0
BLOCK
  8
0
  2
SCALE
 70
0
 10
0.0
 20
0.0
 30
0.0
  3
SCALE
  0
POLYLINE
  8
0
 62
7
 70
1
 66
1
 10
0.0
 20
0.0
 30
0.0
  0
VERTEX
  8
0
 10
-3.24212598421
 20
5.89763779525
 30
0.0
  0
VERTEX
  8
0
 10
-1.0767716535
 20
5.89763779525
 30
0.0
  0
VERTEX
  8
0
 10
-1.0767716535
 20
5.50393700785
 30
0.0
  0
VERTEX
  8
0
 10
-3.24212598421
 20
5.50393700785
 30
0.0
  0
SEQEND
  8
0
  0
POLYLINE
  8
0
 62
7
 70
1
 66
1
 10
0.0
 20
0.0
 30
0.0
  0
VERTEX
  8
0
 10
-8.31102362201
 20
8.4960629921
 30
0.0
  0
VERTEX
  8
0
 10
-8.19291338579
 20
8.4960629921
 30
0.0
  0
VERTEX
  8
0
 10
-8.19291338579
 20
4.95275590548
 30
0.0
  0
VERTEX
  8
0
 10
-8.31102362201
 20
4.95275590548
 30
0.0
  0
SEQEND
  8
0
  0
CIRCLE
  8
0
 62
7
 10
-3.28149606295
 20
6.21259842517
 30
0.0
 40
0.0590551181103
  0
CIRCLE
  8
0
 62
7
 10
-0.998031496016
 20
6.21259842517
 30
0.0
 40
0.0590551181103
  0
CIRCLE
  8
0
 62
7
 10
-3.28149606295
 20
8.1023622047
 30
0.0
 40
0.0590551181103
  0
CIRCLE
  8
0
 62
7
 10
-0.998031496016
 20
8.1023622047
 30
0.0
 40
0.0590551181103
  0
POLYLINE
  8
0
 62
7
 70
1
 66
1
 10
0.0
 20
0.0
 30
0.0
  0
VERTEX
  8
0
 10
-1.36220472436
 20
12.0
 30
0.0
  0
VERTEX
  8
0
 10
1.00000000005
 20
12.0
 30
0.0
  0
VERTEX
  8
0
 10
1.00000000005
 20
11.8818897638
 30
0.0
  0
VERTEX
  8
0
 10
-1.36220472436
 20
11.8818897638
 30
0.0
  0
SEQEND
  8
0
  0
POLYLINE
  8
0
 62
7
 70
1
 66
1
 10
0.0
 20
0.0
 30
0.0
  0
VERTEX
  8
0
 10
-5.76181102358
 20
8.88976379791
 30
0.0
 42
0.999999887881
  0
VERTEX
  8
0
 10
-5.97834645665
 20
8.88976379859
 30
0.0
  0
VERTEX
  8
0
 10
-5.97834645665
 20
8.1023622047
 30
0.0
 42
0.999999981763
  0
VERTEX
  8
0
 10
-5.76181102358
 20
8.10236221397
 30
0.0
  0
SEQEND
  8
0
  0
POLYLINE
  8
0
 62
7
 70
1
 66
1
 10
0.0
 20
0.0
 30
0.0
  0
VERTEX
  8
0
 10
-5.30905511807
 20
8.1023622047
 30
0.0
 42
1.0
  0
VERTEX
  8
0
 10
-4.99409448815
 20
8.1023622047
 30
0.0
  0
VERTEX
  8
0
 10
-4.99409448815
 20
8.8897637795
 30
0.0
 42
1.0
  0
VERTEX
  8
0
 10
-5.30905511807
 20
8.8897637795
 30
0.0
  0
SEQEND
  8
0
  0
POLYLINE
  8
0
 62
7
 70
1
 66
1
 10
0.0
 20
0.0
 30
0.0
  0
VERTEX
  8
0
 10
-4.54133858263
 20
8.1023622047
 30
0.0
 42
1.0
  0
VERTEX
  8
0
 10
-4.32480314956
 20
8.1023622047
 30
0.0
  0
VERTEX
  8
0
 10
-4.32480314956
 20
8.8897637795
 30
0.0
 42
1.0
  0
VERTEX
  8
0
 10
-4.54133858263
 20
8.8897637795
 30
0.0
  0
SEQEND
  8
0
  0
POLYLINE
  8
0
 62
7
 70
1
 66
1
 10
0.0
 20
0.0
 30
0.0
  0
VERTEX
  8
0
 10
-0.0039370078261
 20
9.44094488187
 30
0.0
  0
VERTEX
  8
0
 10
1.57086614178
 20
9.44094488187
 30
0.0
  0
VERTEX
  8
0
 10
1.57086614178
 20
8.65354330706
 30
0.0
  0
VERTEX
  8
0
 10
-0.0039370078261
 20
8.65354330706
 30
0.0
  0
SEQEND
  8
0
  0
CIRCLE
  8
0
 62
7
 10
-0.181102362157
 20
9.24409448817
 30
0.0
 40
0.0590551181103
  0
CIRCLE
  8
0
 62
7
 10
-0.181102362157
 20
8.85039370076
 30
0.0
 40
0.0590551181103
  0
CIRCLE
  8
0
 62
7
 10
1.74803149611
 20
9.24409448817
 30
0.0
 40
0.0590551181103
  0
CIRCLE
  8
0
 62
7
 10
1.74803149611
 20
8.85039370076
 30
0.0
 40
0.0590551181103
  0
CIRCLE
  8
0
 62
7
 10
-7.51377952752
 20
9.04724409446
 30
0.0
 40
0.157480314961
  0
CIRCLE
  8
0
 62
7
 10
-6.79527559051
 20
9.04724409446
 30
0.0
 40
0.108267716536
  0
CIRCLE
  8
0
 62
7
 10
-8.23228346453
 20
9.04724409446
 30
0.0
 40
0.108267716536
  0
POLYLINE
  8
0
 62
7
 70
1
 66
1
 10
0.0
 20
0.0
 30
0.0
  0
VERTEX
  8
0
 10
4.75984251974
 20
8.4960629921
 30
0.0
  0
VERTEX
  8
0
 10
4.87795275596
 20
8.4960629921
 30
0.0
  0
VERTEX
  8
0
 10
4.87795275596
 20
4.95275590548
 30
0.0
  0
VERTEX
  8
0
 10
4.75984251974
 20
4.95275590548
 30
0.0
  0
SEQEND
  8
0
  0
POLYLINE
  8
0
 62
7
 70
1
 66
1
 10
0.0
 20
0.0
 30
0.0
  0
VERTEX
  8
0
 10
1.688976378
 20
8.4960629921
 30
0.0
  0
VERTEX
  8
0
 10
1.80708661422
 20
8.4960629921
 30
0.0
  0
VERTEX
  8
0
 10
1.80708661422
 20
4.95275590548
 30
0.0
  0
VERTEX
  8
0
 10
1.688976378
 20
4.95275590548
 30
0.0
  0
SEQEND
  8
0
  0
POLYLINE
  8
0
 62
7
 70
1
 66
1
 10
0.0
 20
0.0
 30
0.0
  0
VERTEX
  8
0
 10
2.10236220478
 20
7.42536910911
 30
0.0
  0
VERTEX
  8
0
 10
4.46456692919
 20
7.42536910911
 30
0.0
  0
VERTEX
  8
0
 10
4.46456692919
 20
4.66946359729
 30
0.0
  0
VERTEX
  8
0
 10
2.10236220478
 20
4.66946359729
 30
0.0
  0
SEQEND
  8
0
  0
POLYLINE
  8
0
 62
7
 70
1
 66
1
 10
0.0
 20
0.0
 30
0.0
  0
VERTEX
  8
0
 10
-1.55905511806
 20
9.75590551179
 30
0.0
  0
VERTEX
  8
0
 10
-1.55905511806
 20
12.1181102362
 30
0.0
  0
VERTEX
  8
0
 10
1.19685039375
 20
12.1181102362
 30
0.0
  0
VERTEX
  8
0
 10
1.19685039375
 20
9.75590551179
 30
0.0
  0
VERTEX
  8
0
 10
7.10236220478
 20
9.75590551179
 30
0.0
  0
VERTEX
  8
0
 10
7.10236220478
 20
4.44094488186
 30
0.0
  0
VERTEX
  8
0
 10
-8.6456692913
 20
4.44094488186
 30
0.0
  0
VERTEX
  8
0
 10
-8.6456692913
 20
9.75590551179
 30
0.0
  0
SEQEND
  8
0
  0
ENDBLK
  0
ENDSEC
  0
SECTION
  2
ENTITIES
  0
INSERT
  2
SCALE
  8
0
 62
7
 10
0.0
 20
0.0
 30
0.0
  0
ENDSEC
  0
EOF
