  0
SECTION
  2
HEADER
  9
$ACADVER
  1
AC1009
  9
$INSBASE
 10
0.0
 20
0.0
 30
0.0
  9
$EXTMIN
 10
0.0
 20
0.0
 30
0.0
  9
$EXTMAX
 10
0.0
 20
0.0
 30
0.0
  0
ENDSEC
  0
SECTION
  2
TABLES
  0
TABLE
  2
VPORT
 70
0
  0
ENDTAB
  0
TABLE
  2
LTYPE
 70
1
  0
LTYPE
  2
CONTINUOUS
 70
0
  3
Solid line
 72
65
 73
0
 40
0.0
  0
ENDTAB
  0
TABLE
  2
LAYER
 70
1
  0
LAYER
  2
0
 70
64
 62
7
  6
continuous
  0
ENDTAB
  0
TABLE
  2
STYLE
 70
1
  0
STYLE
  2
STANDARD
 70
0
 40
0
 41
1.0
 50
0.0
 71
0
 42
1
 3
ARIAL.TTF
 4

  0
ENDTAB
  0
TABLE
  2
VIEW
 70
0
  0
ENDTAB
  0
ENDSEC
  0
SECTION
  2
BLOCKS
  0
BLOCK
  8
Bearings
  2
SKETCH002
 70
0
 10
0.0
 20
0.0
 30
0.0
  3
SKETCH002
  0
POLYLINE
  8
Bearings
 62
7
 70
1
 66
1
 10
0.0
 20
0.0
 30
0.0
  0
VERTEX
  8
Bearings
 10
44.5
 20
-3.99999953245
 30
0.0
 42
0.999999887881
  0
VERTEX
  8
Bearings
 10
39.0
 20
-3.99999951523
 30
0.0
  0
VERTEX
  8
Bearings
 10
39.0
 20
-24.0
 30
0.0
 42
0.999999981763
  0
VERTEX
  8
Bearings
 10
44.5
 20
-23.9999997646
 30
0.0
  0
SEQEND
  8
Bearings
  0
POLYLINE
  8
Bearings
 62
7
 70
1
 66
1
 10
0.0
 20
0.0
 30
0.0
  0
VERTEX
  8
Bearings
 10
56.0
 20
-24.0
 30
0.0
 42
1.0
  0
VERTEX
  8
Bearings
 10
64.0
 20
-24.0
 30
0.0
  0
VERTEX
  8
Bearings
 10
64.0
 20
-4.0
 30
0.0
 42
1.0
  0
VERTEX
  8
Bearings
 10
56.0
 20
-4.0
 30
0.0
  0
SEQEND
  8
Bearings
  0
POLYLINE
  8
Bearings
 62
7
 70
1
 66
1
 10
0.0
 20
0.0
 30
0.0
  0
VERTEX
  8
Bearings
 10
75.5
 20
-24.0
 30
0.0
 42
1.0
  0
VERTEX
  8
Bearings
 10
81.0
 20
-24.0
 30
0.0
  0
VERTEX
  8
Bearings
 10
81.0
 20
-4.0
 30
0.0
 42
1.0
  0
VERTEX
  8
Bearings
 10
75.5
 20
-4.0
 30
0.0
  0
SEQEND
  8
Bearings
  0
ENDBLK
  0
BLOCK
  8
0
  2
SKETCH004
 70
0
 10
0.0
 20
0.0
 30
0.0
  3
SKETCH004
  0
CIRCLE
  8
0
 62
7
 10
107.5
 20
-72.0
 30
0.0
 40
1.5
  0
CIRCLE
  8
0
 62
7
 10
165.5
 20
-72.0
 30
0.0
 40
1.5
  0
CIRCLE
  8
0
 62
7
 10
107.5
 20
-24.0
 30
0.0
 40
1.5
  0
CIRCLE
  8
0
 62
7
 10
165.5
 20
-24.0
 30
0.0
 40
1.5
  0
ENDBLK
  0
BLOCK
  8
Bearings
  2
SKETCH
 70
0
 10
0.0
 20
0.0
 30
0.0
  3
SKETCH
  0
CIRCLE
  8
Bearings
 62
7
 10
0.0
 20
0.0
 30
0.0
 40
4.0
  0
CIRCLE
  8
Bearings
 62
7
 10
18.25
 20
0.0
 30
0.0
 40
2.75
  0
CIRCLE
  8
Bearings
 62
7
 10
-18.25
 20
0.0
 30
0.0
 40
2.75
  0
ENDBLK
  0
BLOCK
  8
0
  2
SKETCH005
 70
0
 10
0.0
 20
0.0
 30
0.0
  3
SKETCH005
  0
POLYLINE
  8
0
 62
7
 70
1
 66
1
 10
0.0
 20
0.0
 30
0.0
  0
VERTEX
  8
0
 10
190.75
 20
10.0
 30
0.0
  0
VERTEX
  8
0
 10
230.75
 20
10.0
 30
0.0
  0
VERTEX
  8
0
 10
230.75
 20
-10.0
 30
0.0
  0
VERTEX
  8
0
 10
190.75
 20
-10.0
 30
0.0
  0
SEQEND
  8
0
  0
CIRCLE
  8
0
 62
7
 10
186.25
 20
5.0
 30
0.0
 40
1.5
  0
CIRCLE
  8
0
 62
7
 10
186.25
 20
-5.0
 30
0.0
 40
1.5
  0
CIRCLE
  8
0
 62
7
 10
235.25
 20
5.0
 30
0.0
 40
1.5
  0
CIRCLE
  8
0
 62
7
 10
235.25
 20
-5.0
 30
0.0
 40
1.5
  0
ENDBLK
  0
ENDSEC
  0
SECTION
  2
ENTITIES
  0
POLYLINE
  8
0
 62
7
 70
1
 66
1
 10
0.0
 20
0.0
 30
0.0
  0
VERTEX
  8
0
 10
156.25
 20
75.0
 30
0.0
  0
VERTEX
  8
0
 10
216.25
 20
75.0
 30
0.0
  0
VERTEX
  8
0
 10
216.25
 20
72.0
 30
0.0
  0
VERTEX
  8
0
 10
156.25
 20
72.0
 30
0.0
  0
SEQEND
  8
0
  0
INSERT
  2
SKETCH002
  8
Bearings
 62
7
 10
0.0
 20
0.0
 30
0.0
  0
POLYLINE
  8
Cross Section
 62
7
 70
1
 66
1
 10
0.0
 20
0.0
 30
0.0
  0
VERTEX
  8
Cross Section
 10
-20.25
 20
-14.0
 30
0.0
  0
VERTEX
  8
Cross Section
 10
-17.25
 20
-14.0
 30
0.0
  0
VERTEX
  8
Cross Section
 10
-17.25
 20
-104.0
 30
0.0
  0
VERTEX
  8
Cross Section
 10
-20.25
 20
-104.0
 30
0.0
  0
SEQEND
  8
Cross Section
  0
POLYLINE
  8
0
 62
7
 70
1
 66
1
 10
0.0
 20
0.0
 30
0.0
  0
VERTEX
  8
0
 10
244.25
 20
-41.195624628
 30
0.0
  0
VERTEX
  8
0
 10
304.25
 20
-41.195624628
 30
0.0
  0
VERTEX
  8
0
 10
304.25
 20
-111.195624628
 30
0.0
  0
VERTEX
  8
0
 10
244.25
 20
-111.195624628
 30
0.0
  0
SEQEND
  8
0
  0
POLYLINE
  8
0
 62
7
 70
1
 66
1
 10
0.0
 20
0.0
 30
0.0
  0
VERTEX
  8
0
 10
151.25
 20
18.0
 30
0.0
  0
VERTEX
  8
0
 10
151.25
 20
78.0
 30
0.0
  0
VERTEX
  8
0
 10
221.25
 20
78.0
 30
0.0
  0
VERTEX
  8
0
 10
221.25
 20
18.0
 30
0.0
  0
VERTEX
  8
0
 10
371.25
 20
18.0
 30
0.0
  0
VERTEX
  8
0
 10
371.25
 20
-117.0
 30
0.0
  0
VERTEX
  8
0
 10
-28.75
 20
-117.0
 30
0.0
  0
VERTEX
  8
0
 10
-28.75
 20
18.0
 30
0.0
  0
SEQEND
  8
0
  0
INSERT
  2
SKETCH004
  8
0
 62
7
 10
0.0
 20
0.0
 30
0.0
  0
INSERT
  2
SKETCH
  8
Bearings
 62
7
 10
0.0
 20
0.0
 30
0.0
  0
POLYLINE
  8
Cross Section
 62
7
 70
1
 66
1
 10
0.0
 20
0.0
 30
0.0
  0
VERTEX
  8
Cross Section
 10
233.75
 20
-14.0
 30
0.0
  0
VERTEX
  8
Cross Section
 10
236.75
 20
-14.0
 30
0.0
  0
VERTEX
  8
Cross Section
 10
236.75
 20
-104.0
 30
0.0
  0
VERTEX
  8
Cross Section
 10
233.75
 20
-104.0
 30
0.0
  0
SEQEND
  8
Cross Section
  0
POLYLINE
  8
Cross Section
 62
7
 70
1
 66
1
 10
0.0
 20
0.0
 30
0.0
  0
VERTEX
  8
Cross Section
 10
311.75
 20
-14.0
 30
0.0
  0
VERTEX
  8
Cross Section
 10
314.75
 20
-14.0
 30
0.0
  0
VERTEX
  8
Cross Section
 10
314.75
 20
-104.0
 30
0.0
  0
VERTEX
  8
Cross Section
 10
311.75
 20
-104.0
 30
0.0
  0
SEQEND
  8
Cross Section
  0
POLYLINE
  8
0
 62
7
 70
1
 66
1
 10
0.0
 20
0.0
 30
0.0
  0
VERTEX
  8
0
 10
108.5
 20
-80.0
 30
0.0
  0
VERTEX
  8
0
 10
163.5
 20
-80.0
 30
0.0
  0
VERTEX
  8
0
 10
163.5
 20
-90.0
 30
0.0
  0
VERTEX
  8
0
 10
108.5
 20
-90.0
 30
0.0
  0
SEQEND
  8
0
  0
INSERT
  2
SKETCH005
  8
0
 62
7
 10
0.0
 20
0.0
 30
0.0
  0
ENDSEC
  0
EOF
