  0
SECTION
  2
HEADER
  9
$ACADVER
  1
AC1009
  9
$INSBASE
 10
0.0
 20
0.0
 30
0.0
  9
$EXTMIN
 10
0.0
 20
0.0
 30
0.0
  9
$EXTMAX
 10
0.0
 20
0.0
 30
0.0
  0
ENDSEC
  0
SECTION
  2
TABLES
  0
TABLE
  2
VPORT
 70
0
  0
ENDTAB
  0
TABLE
  2
LTYPE
 70
1
  0
LTYPE
  2
CONTINUOUS
 70
0
  3
Solid line
 72
65
 73
0
 40
0.0
  0
ENDTAB
  0
TABLE
  2
LAYER
 70
1
  0
LAYER
  2
0
 70
64
 62
7
  6
continuous
  0
ENDTAB
  0
TABLE
  2
STYLE
 70
1
  0
STYLE
  2
STANDARD
 70
0
 40
0
 41
1.0
 50
0.0
 71
0
 42
1
 3
ARIAL.TTF
 4

  0
ENDTAB
  0
TABLE
  2
VIEW
 70
0
  0
ENDTAB
  0
ENDSEC
  0
SECTION
  2
BLOCKS
  0
BLOCK
  8
0
  2
SCALE
 70
0
 10
0.0
 20
0.0
 30
0.0
  3
SCALE
  0
POLYLINE
  8
0
 62
7
 70
1
 66
1
 10
0.0
 20
0.0
 30
0.0
  0
VERTEX
  8
0
 10
1.89960629921
 20
-0.472440944882
 30
0.0
  0
VERTEX
  8
0
 10
1.89960629921
 20
-2.04724409449
 30
0.0
  0
VERTEX
  8
0
 10
1.11220472441
 20
-2.04724409449
 30
0.0
  0
VERTEX
  8
0
 10
1.11220472441
 20
-0.472440944882
 30
0.0
  0
SEQEND
  8
0
  0
CIRCLE
  8
0
 62
7
 10
1.70275590551
 20
-0.295275590552
 30
0.0
 40
0.0590551181103
  0
CIRCLE
  8
0
 62
7
 10
1.30905511811
 20
-0.295275590552
 30
0.0
 40
0.0590551181103
  0
CIRCLE
  8
0
 62
7
 10
1.70275590551
 20
-2.22440944882
 30
0.0
 40
0.0590551181103
  0
CIRCLE
  8
0
 62
7
 10
1.30905511811
 20
-2.22440944882
 30
0.0
 40
0.0590551181103
  0
CIRCLE
  8
0
 62
7
 10
2.24901574803
 20
-3.49744094489
 30
0.0
 40
0.196850393701
  0
POLYLINE
  8
0
 62
7
 70
1
 66
1
 10
0.0
 20
0.0
 30
0.0
  0
VERTEX
  8
0
 10
0.0
 20
0.0
 30
0.0
  0
VERTEX
  8
0
 10
3.01181102363
 20
0.0
 30
0.0
  0
VERTEX
  8
0
 10
3.01181102363
 20
-0.118110236221
 30
0.0
  0
VERTEX
  8
0
 10
3.12992125985
 20
-0.118110236221
 30
0.0
  0
VERTEX
  8
0
 10
3.12992125985
 20
-3.26771653544
 30
0.0
  0
VERTEX
  8
0
 10
3.01181102363
 20
-3.26771653544
 30
0.0
  0
VERTEX
  8
0
 10
3.01181102363
 20
-3.89114173229
 30
0.0
  0
VERTEX
  8
0
 10
0.0
 20
-3.89114173229
 30
0.0
  0
VERTEX
  8
0
 10
0.0
 20
-3.26771653544
 30
0.0
  0
VERTEX
  8
0
 10
-0.118110236221
 20
-3.26771653544
 30
0.0
  0
VERTEX
  8
0
 10
-0.118110236221
 20
-0.118110236221
 30
0.0
  0
VERTEX
  8
0
 10
0.0
 20
-0.118110236221
 30
0.0
  0
SEQEND
  8
0
  0
CIRCLE
  8
0
 62
7
 10
0.723425196851
 20
-3.49744094489
 30
0.0
 40
0.196850393701
  0
POLYLINE
  8
0
 62
7
 70
1
 66
1
 10
0.0
 20
0.0
 30
0.0
  0
VERTEX
  8
0
 10
1.4468503937
 20
-2.71002255415
 30
0.0
  0
VERTEX
  8
0
 10
1.56496062992
 20
-2.71002255415
 30
0.0
  0
VERTEX
  8
0
 10
1.56496062992
 20
-3.69427452265
 30
0.0
  0
VERTEX
  8
0
 10
1.4468503937
 20
-3.69427452265
 30
0.0
  0
SEQEND
  8
0
  0
ENDBLK
  0
ENDSEC
  0
SECTION
  2
ENTITIES
  0
INSERT
  2
SCALE
  8
0
 62
7
 10
0.0
 20
0.0
 30
0.0
  0
ENDSEC
  0
EOF
