  0
SECTION
  2
HEADER
  9
$ACADVER
  1
AC1009
  9
$INSBASE
 10
0.0
 20
0.0
 30
0.0
  9
$EXTMIN
 10
0.0
 20
0.0
 30
0.0
  9
$EXTMAX
 10
0.0
 20
0.0
 30
0.0
  0
ENDSEC
  0
SECTION
  2
TABLES
  0
TABLE
  2
VPORT
 70
0
  0
ENDTAB
  0
TABLE
  2
LTYPE
 70
1
  0
LTYPE
  2
CONTINUOUS
 70
0
  3
Solid line
 72
65
 73
0
 40
0.0
  0
ENDTAB
  0
TABLE
  2
LAYER
 70
1
  0
LAYER
  2
0
 70
64
 62
7
  6
continuous
  0
ENDTAB
  0
TABLE
  2
STYLE
 70
1
  0
STYLE
  2
STANDARD
 70
0
 40
0
 41
1.0
 50
0.0
 71
0
 42
1
 3
ARIAL.TTF
 4

  0
ENDTAB
  0
TABLE
  2
VIEW
 70
0
  0
ENDTAB
  0
ENDSEC
  0
SECTION
  2
BLOCKS
  0
BLOCK
  8
0
  2
SCALE
 70
0
 10
0.0
 20
0.0
 30
0.0
  3
SCALE
  0
POLYLINE
  8
0
 62
7
 70
1
 66
1
 10
0.0
 20
0.0
 30
0.0
  0
VERTEX
  8
0
 10
76.3700785536
 20
-0.63779541639
 30
0.0
  0
VERTEX
  8
0
 10
76.2519683103
 20
-0.63779541639
 30
0.0
  0
VERTEX
  8
0
 10
76.2519683103
 20
-3.0
 30
0.0
  0
VERTEX
  8
0
 10
76.3700785536
 20
-3.0
 30
0.0
  0
VERTEX
  8
0
 10
76.3700785536
 20
-3.11811022918
 30
0.0
  0
VERTEX
  8
0
 10
79.3818897567
 20
-3.11811022918
 30
0.0
  0
VERTEX
  8
0
 10
79.3818897567
 20
-3.0
 30
0.0
  0
VERTEX
  8
0
 10
79.5
 20
-3.0
 30
0.0
  0
VERTEX
  8
0
 10
79.5
 20
-0.63779541639
 30
0.0
  0
VERTEX
  8
0
 10
79.3818897567
 20
-0.63779541639
 30
0.0
  0
VERTEX
  8
0
 10
79.3818897567
 20
-0.519685187209
 30
0.0
  0
VERTEX
  8
0
 10
76.3700785536
 20
-0.519685187209
 30
0.0
  0
SEQEND
  8
0
  0
POLYLINE
  8
0
 62
7
 70
1
 66
1
 10
0.0
 20
0.0
 30
0.0
  0
VERTEX
  8
0
 10
78.3681101688
 20
-2.17322839574
 30
0.0
  0
SEQEND
  8
0
  0
POLYLINE
  8
0
 62
7
 70
1
 66
1
 10
0.0
 20
0.0
 30
0.0
  0
VERTEX
  8
0
 10
78.3681101688
 20
-1.34645679147
 30
0.0
  0
SEQEND
  8
0
  0
POLYLINE
  8
0
 62
7
 70
1
 66
1
 10
0.0
 20
0.0
 30
0.0
  0
VERTEX
  8
0
 10
77.8759841552
 20
-1.34645679147
 30
0.0
  0
SEQEND
  8
0
  0
POLYLINE
  8
0
 62
7
 70
1
 66
1
 10
0.0
 20
0.0
 30
0.0
  0
VERTEX
  8
0
 10
77.8759841552
 20
-2.17322839574
 30
0.0
  0
SEQEND
  8
0
  0
POLYLINE
  8
0
 62
7
 70
1
 66
1
 10
0.0
 20
0.0
 30
0.0
  0
VERTEX
  8
0
 10
78.0334644795
 20
-1.97637801377
 30
0.0
  0
VERTEX
  8
0
 10
78.0334644795
 20
-1.66141740262
 30
0.0
  0
VERTEX
  8
0
 10
77.7185038308
 20
-1.66141740262
 30
0.0
  0
VERTEX
  8
0
 10
77.7185038308
 20
-1.97637801377
 30
0.0
  0
SEQEND
  8
0
  0
POLYLINE
  8
0
 62
7
 70
1
 66
1
 10
0.0
 20
0.0
 30
0.0
  0
VERTEX
  8
0
 10
76.9901573307
 20
-2.80314961803
 30
0.0
  0
SEQEND
  8
0
  0
POLYLINE
  8
0
 62
7
 70
1
 66
1
 10
0.0
 20
0.0
 30
0.0
  0
VERTEX
  8
0
 10
78.9586613851
 20
-2.80314961803
 30
0.0
  0
SEQEND
  8
0
  0
POLYLINE
  8
0
 62
7
 70
1
 66
1
 10
0.0
 20
0.0
 30
0.0
  0
VERTEX
  8
0
 10
78.9586613851
 20
-0.834645798357
 30
0.0
  0
SEQEND
  8
0
  0
POLYLINE
  8
0
 62
7
 70
1
 66
1
 10
0.0
 20
0.0
 30
0.0
  0
VERTEX
  8
0
 10
76.9901573307
 20
-0.834645798357
 30
0.0
  0
SEQEND
  8
0
  0
ENDBLK
  0
ENDSEC
  0
SECTION
  2
ENTITIES
  0
INSERT
  2
SCALE
  8
0
 62
7
 10
0.0
 20
0.0
 30
0.0
  0
ENDSEC
  0
EOF
