  0
SECTION
  2
HEADER
  9
$ACADVER
  1
AC1009
  9
$INSBASE
 10
0.0
 20
0.0
 30
0.0
  9
$EXTMIN
 10
0.0
 20
0.0
 30
0.0
  9
$EXTMAX
 10
0.0
 20
0.0
 30
0.0
  0
ENDSEC
  0
SECTION
  2
TABLES
  0
TABLE
  2
VPORT
 70
0
  0
ENDTAB
  0
TABLE
  2
LTYPE
 70
1
  0
LTYPE
  2
CONTINUOUS
 70
0
  3
Solid line
 72
65
 73
0
 40
0.0
  0
ENDTAB
  0
TABLE
  2
LAYER
 70
1
  0
LAYER
  2
0
 70
64
 62
7
  6
continuous
  0
ENDTAB
  0
TABLE
  2
STYLE
 70
1
  0
STYLE
  2
STANDARD
 70
0
 40
0
 41
1.0
 50
0.0
 71
0
 42
1
 3
ARIAL.TTF
 4

  0
ENDTAB
  0
TABLE
  2
VIEW
 70
0
  0
ENDTAB
  0
ENDSEC
  0
SECTION
  2
BLOCKS
  0
BLOCK
  8
0
  2
SCALE
 70
0
 10
0.0
 20
0.0
 30
0.0
  3
SCALE
  0
CIRCLE
  8
0
 62
7
 10
-27.8582677165
 20
35.5433070866
 30
0.0
 40
0.157480314961
  0
CIRCLE
  8
0
 62
7
 10
-27.1397637795
 20
35.5433070866
 30
0.0
 40
0.108267716536
  0
CIRCLE
  8
0
 62
7
 10
-28.5767716535
 20
35.5433070866
 30
0.0
 40
0.108267716536
  0
POLYLINE
  8
0
 62
7
 70
1
 66
1
 10
0.0
 20
0.0
 30
0.0
  0
VERTEX
  8
0
 10
-26.1062992126
 20
35.3858267901
 30
0.0
 42
0.999999887881
  0
VERTEX
  8
0
 10
-26.3228346457
 20
35.3858267907
 30
0.0
  0
VERTEX
  8
0
 10
-26.3228346457
 20
34.5984251968
 30
0.0
 42
0.999999981763
  0
VERTEX
  8
0
 10
-26.1062992126
 20
34.5984252061
 30
0.0
  0
SEQEND
  8
0
  0
POLYLINE
  8
0
 62
7
 70
1
 66
1
 10
0.0
 20
0.0
 30
0.0
  0
VERTEX
  8
0
 10
-25.6535433071
 20
34.5984251968
 30
0.0
 42
1.0
  0
VERTEX
  8
0
 10
-25.3385826772
 20
34.5984251968
 30
0.0
  0
VERTEX
  8
0
 10
-25.3385826772
 20
35.3858267717
 30
0.0
 42
1.0
  0
VERTEX
  8
0
 10
-25.6535433071
 20
35.3858267717
 30
0.0
  0
SEQEND
  8
0
  0
POLYLINE
  8
0
 62
7
 70
1
 66
1
 10
0.0
 20
0.0
 30
0.0
  0
VERTEX
  8
0
 10
-24.8858267716
 20
34.5984251968
 30
0.0
 42
1.0
  0
VERTEX
  8
0
 10
-24.6692913386
 20
34.5984251968
 30
0.0
  0
VERTEX
  8
0
 10
-24.6692913386
 20
35.3858267717
 30
0.0
 42
1.0
  0
VERTEX
  8
0
 10
-24.8858267716
 20
35.3858267717
 30
0.0
  0
SEQEND
  8
0
  0
CIRCLE
  8
0
 62
7
 10
-19.1279527559
 20
35.5433070866
 30
0.0
 40
0.157480314961
  0
CIRCLE
  8
0
 62
7
 10
-18.4094488189
 20
35.5433070866
 30
0.0
 40
0.108267716536
  0
CIRCLE
  8
0
 62
7
 10
-19.8464566929
 20
35.5433070866
 30
0.0
 40
0.108267716536
  0
POLYLINE
  8
0
 62
7
 70
1
 66
1
 10
0.0
 20
0.0
 30
0.0
  0
VERTEX
  8
0
 10
-21.7066929134
 20
38.3779527559
 30
0.0
  0
VERTEX
  8
0
 10
-19.344488189
 20
38.3779527559
 30
0.0
  0
VERTEX
  8
0
 10
-19.344488189
 20
38.2598425197
 30
0.0
  0
VERTEX
  8
0
 10
-21.7066929134
 20
38.2598425197
 30
0.0
  0
SEQEND
  8
0
  0
POLYLINE
  8
0
 62
7
 70
1
 66
1
 10
0.0
 20
0.0
 30
0.0
  0
VERTEX
  8
0
 10
-18.8135716142
 20
36.2519685039
 30
0.0
 42
-0.414213562373
  0
VERTEX
  8
0
 10
-19.1476377953
 20
36.586034685
 30
0.0
  0
VERTEX
  8
0
 10
-19.1476377953
 20
38.3273511417
 30
0.0
 42
0.414213562373
  0
VERTEX
  8
0
 10
-19.4344598819
 20
38.6141732283
 30
0.0
  0
VERTEX
  8
0
 10
-21.6167212205
 20
38.6141732283
 30
0.0
 42
0.414213562373
  0
VERTEX
  8
0
 10
-21.9035433071
 20
38.3273511417
 30
0.0
  0
VERTEX
  8
0
 10
-21.9035433071
 20
36.586034685
 30
0.0
 42
-0.414213562373
  0
VERTEX
  8
0
 10
-22.2376094882
 20
36.2519685039
 30
0.0
  0
VERTEX
  8
0
 10
-28.2385085433
 20
36.2519685039
 30
0.0
 42
0.414213562373
  0
VERTEX
  8
0
 10
-28.9901574803
 20
35.5003195669
 30
0.0
  0
VERTEX
  8
0
 10
-28.9901574803
 20
31.5823575984
 30
0.0
 42
0.414213562373
  0
VERTEX
  8
0
 10
-28.3448077559
 20
30.937007874
 30
0.0
  0
VERTEX
  8
0
 10
-13.8874757086
 20
30.937007874
 30
0.0
 42
0.414213562373
  0
VERTEX
  8
0
 10
-13.2421259842
 20
31.5823575984
 30
0.0
  0
VERTEX
  8
0
 10
-13.2421259842
 20
35.5003195669
 30
0.0
 42
0.414213562373
  0
VERTEX
  8
0
 10
-13.9937749212
 20
36.2519685039
 30
0.0
  0
SEQEND
  8
0
  0
CIRCLE
  8
0
 62
7
 10
-23.625984252
 20
34.5984251968
 30
0.0
 40
0.0590551181103
  0
CIRCLE
  8
0
 62
7
 10
-20.4763779527
 20
32.4133858268
 30
0.0
 40
0.0590551181103
  0
CIRCLE
  8
0
 62
7
 10
-20.4763779527
 20
34.5984251968
 30
0.0
 40
0.0590551181103
  0
CIRCLE
  8
0
 62
7
 10
-23.625984252
 20
32.4133858268
 30
0.0
 40
0.0604570866142
  0
CIRCLE
  8
0
 62
7
 10
-21.4803149606
 20
33.811023622
 30
0.0
 40
0.0984251968505
  0
CIRCLE
  8
0
 62
7
 10
-20.968503937
 20
33.811023622
 30
0.0
 40
0.0984251968505
  0
CIRCLE
  8
0
 62
7
 10
-21.9527559055
 20
33.8897637795
 30
0.0
 40
0.0688976377954
  0
CIRCLE
  8
0
 62
7
 10
-21.9527559055
 20
33.1417322835
 30
0.0
 40
0.0688976377954
  0
CIRCLE
  8
0
 62
7
 10
-20.1811023622
 20
33.811023622
 30
0.0
 40
0.118110236221
  0
POLYLINE
  8
0
 62
7
 70
1
 66
1
 10
0.0
 20
0.0
 30
0.0
  0
VERTEX
  8
0
 10
-28.655511811
 20
34.7097637795
 30
0.0
  0
VERTEX
  8
0
 10
-28.5374015748
 20
34.7097637795
 30
0.0
  0
VERTEX
  8
0
 10
-28.5374015748
 20
31.5601574803
 30
0.0
  0
VERTEX
  8
0
 10
-28.655511811
 20
31.5601574803
 30
0.0
  0
SEQEND
  8
0
  0
POLYLINE
  8
0
 62
7
 70
1
 66
1
 10
0.0
 20
0.0
 30
0.0
  0
VERTEX
  8
0
 10
-15.5846456693
 20
34.7097637795
 30
0.0
  0
VERTEX
  8
0
 10
-15.4665354331
 20
34.7097637795
 30
0.0
  0
VERTEX
  8
0
 10
-15.4665354331
 20
31.5601574803
 30
0.0
  0
VERTEX
  8
0
 10
-15.5846456693
 20
31.5601574803
 30
0.0
  0
SEQEND
  8
0
  0
POLYLINE
  8
0
 62
7
 70
1
 66
1
 10
0.0
 20
0.0
 30
0.0
  0
VERTEX
  8
0
 10
-18.655511811
 20
34.7097805955
 30
0.0
  0
VERTEX
  8
0
 10
-18.5374015748
 20
34.7097805955
 30
0.0
  0
VERTEX
  8
0
 10
-18.5374015748
 20
31.5601742962
 30
0.0
  0
VERTEX
  8
0
 10
-18.655511811
 20
31.5601742962
 30
0.0
  0
SEQEND
  8
0
  0
POLYLINE
  8
0
 62
7
 70
1
 66
1
 10
0.0
 20
0.0
 30
0.0
  0
VERTEX
  8
0
 10
-18.2421259842
 20
31.4523486761
 30
0.0
  0
VERTEX
  8
0
 10
-18.2421259842
 20
33.5873659202
 30
0.0
 42
-0.414213562373
  0
VERTEX
  8
0
 10
-17.9080598031
 20
33.9214321013
 30
0.0
  0
VERTEX
  8
0
 10
-16.1667433464
 20
33.9214321013
 30
0.0
 42
-0.414213562373
  0
VERTEX
  8
0
 10
-15.8799212598
 20
33.6346100146
 30
0.0
  0
VERTEX
  8
0
 10
-15.8799212598
 20
31.4995927705
 30
0.0
 42
-0.414213562373
  0
VERTEX
  8
0
 10
-16.2139874409
 20
31.1655265894
 30
0.0
  0
VERTEX
  8
0
 10
-17.9553038976
 20
31.1655265894
 30
0.0
 42
-0.414213562373
  0
SEQEND
  8
0
  0
ENDBLK
  0
ENDSEC
  0
SECTION
  2
ENTITIES
  0
INSERT
  2
SCALE
  8
0
 62
7
 10
0.0
 20
0.0
 30
0.0
  0
ENDSEC
  0
EOF
