  0
SECTION
  2
HEADER
  9
$ACADVER
  1
AC1009
  9
$INSBASE
 10
0.0
 20
0.0
 30
0.0
  9
$EXTMIN
 10
0.0
 20
0.0
 30
0.0
  9
$EXTMAX
 10
0.0
 20
0.0
 30
0.0
  0
ENDSEC
  0
SECTION
  2
TABLES
  0
TABLE
  2
VPORT
 70
0
  0
ENDTAB
  0
TABLE
  2
LTYPE
 70
1
  0
LTYPE
  2
CONTINUOUS
 70
0
  3
Solid line
 72
65
 73
0
 40
0.0
  0
ENDTAB
  0
TABLE
  2
LAYER
 70
1
  0
LAYER
  2
0
 70
64
 62
7
  6
continuous
  0
ENDTAB
  0
TABLE
  2
STYLE
 70
1
  0
STYLE
  2
STANDARD
 70
0
 40
0
 41
1.0
 50
0.0
 71
0
 42
1
 3
ARIAL.TTF
 4

  0
ENDTAB
  0
TABLE
  2
VIEW
 70
0
  0
ENDTAB
  0
ENDSEC
  0
SECTION
  2
BLOCKS
  0
BLOCK
  8
0
  2
SCALE
 70
0
 10
0.0
 20
0.0
 30
0.0
  3
SCALE
  0
CIRCLE
  8
0
 62
7
 10
-19.9645669291
 20
41.4960629921
 30
0.0
 40
0.196850393701
  0
POLYLINE
  8
0
 62
7
 70
1
 66
1
 10
0.0
 20
0.0
 30
0.0
  0
VERTEX
  8
0
 10
-26.1062992126
 20
43.0708661601
 30
0.0
 42
0.999999887881
  0
VERTEX
  8
0
 10
-26.3228346457
 20
43.0708661608
 30
0.0
  0
VERTEX
  8
0
 10
-26.3228346457
 20
42.2834645669
 30
0.0
 42
0.999999981763
  0
VERTEX
  8
0
 10
-26.1062992126
 20
42.2834645762
 30
0.0
  0
SEQEND
  8
0
  0
POLYLINE
  8
0
 62
7
 70
1
 66
1
 10
0.0
 20
0.0
 30
0.0
  0
VERTEX
  8
0
 10
-25.6535433071
 20
42.2834645669
 30
0.0
 42
1.0
  0
VERTEX
  8
0
 10
-25.3385826772
 20
42.2834645669
 30
0.0
  0
VERTEX
  8
0
 10
-25.3385826772
 20
43.0708661417
 30
0.0
 42
1.0
  0
VERTEX
  8
0
 10
-25.6535433071
 20
43.0708661417
 30
0.0
  0
SEQEND
  8
0
  0
POLYLINE
  8
0
 62
7
 70
1
 66
1
 10
0.0
 20
0.0
 30
0.0
  0
VERTEX
  8
0
 10
-24.8858267716
 20
42.2834645669
 30
0.0
 42
1.0
  0
VERTEX
  8
0
 10
-24.6692913386
 20
42.2834645669
 30
0.0
  0
VERTEX
  8
0
 10
-24.6692913386
 20
43.0708661417
 30
0.0
 42
1.0
  0
VERTEX
  8
0
 10
-24.8858267716
 20
43.0708661417
 30
0.0
  0
SEQEND
  8
0
  0
CIRCLE
  8
0
 62
7
 10
-27.8582677165
 20
43.2283464567
 30
0.0
 40
0.157480314961
  0
CIRCLE
  8
0
 62
7
 10
-27.1397637795
 20
43.2283464567
 30
0.0
 40
0.108267716536
  0
CIRCLE
  8
0
 62
7
 10
-28.5767716535
 20
43.2283464567
 30
0.0
 40
0.108267716536
  0
CIRCLE
  8
0
 62
7
 10
-23.625984252
 20
40.3937007874
 30
0.0
 40
0.0590551181103
  0
CIRCLE
  8
0
 62
7
 10
-21.342519685
 20
40.3937007874
 30
0.0
 40
0.0590551181103
  0
CIRCLE
  8
0
 62
7
 10
-23.625984252
 20
42.2834645669
 30
0.0
 40
0.0590551181103
  0
CIRCLE
  8
0
 62
7
 10
-21.342519685
 20
42.2834645669
 30
0.0
 40
0.0590551181103
  0
POLYLINE
  8
0
 62
7
 70
1
 66
1
 10
0.0
 20
0.0
 30
0.0
  0
VERTEX
  8
0
 10
-20.3484251968
 20
43.6220472441
 30
0.0
  0
VERTEX
  8
0
 10
-18.7736220472
 20
43.6220472441
 30
0.0
  0
VERTEX
  8
0
 10
-18.7736220472
 20
42.8346456693
 30
0.0
  0
VERTEX
  8
0
 10
-20.3484251968
 20
42.8346456693
 30
0.0
  0
SEQEND
  8
0
  0
CIRCLE
  8
0
 62
7
 10
-20.5255905512
 20
43.4251968504
 30
0.0
 40
0.0590551181103
  0
CIRCLE
  8
0
 62
7
 10
-20.5255905512
 20
43.031496063
 30
0.0
 40
0.0590551181103
  0
CIRCLE
  8
0
 62
7
 10
-18.5964566929
 20
43.4251968504
 30
0.0
 40
0.0590551181103
  0
CIRCLE
  8
0
 62
7
 10
-18.5964566929
 20
43.031496063
 30
0.0
 40
0.0590551181103
  0
POLYLINE
  8
0
 62
7
 70
1
 66
1
 10
0.0
 20
0.0
 30
0.0
  0
VERTEX
  8
0
 10
-18.655511811
 20
42.3948031496
 30
0.0
  0
VERTEX
  8
0
 10
-18.5374015748
 20
42.3948031496
 30
0.0
  0
VERTEX
  8
0
 10
-18.5374015748
 20
39.2451968504
 30
0.0
  0
VERTEX
  8
0
 10
-18.655511811
 20
39.2451968504
 30
0.0
  0
SEQEND
  8
0
  0
POLYLINE
  8
0
 62
7
 70
1
 66
1
 10
0.0
 20
0.0
 30
0.0
  0
VERTEX
  8
0
 10
-15.5846456693
 20
42.3948031496
 30
0.0
  0
VERTEX
  8
0
 10
-15.4665354331
 20
42.3948031496
 30
0.0
  0
VERTEX
  8
0
 10
-15.4665354331
 20
39.2451968504
 30
0.0
  0
VERTEX
  8
0
 10
-15.5846456693
 20
39.2451968504
 30
0.0
  0
SEQEND
  8
0
  0
POLYLINE
  8
0
 62
7
 70
1
 66
1
 10
0.0
 20
0.0
 30
0.0
  0
VERTEX
  8
0
 10
-18.8104301737
 20
43.9373682459
 30
0.0
 42
-0.414213562373
  0
VERTEX
  8
0
 10
-19.1484253158
 20
44.275363388
 30
0.0
  0
VERTEX
  8
0
 10
-19.1484253158
 20
46.0083720901
 30
0.0
 42
0.407504046696
  0
VERTEX
  8
0
 10
-19.4330708662
 20
46.299629859
 30
0.0
  0
VERTEX
  8
0
 10
-20.2051288263
 20
46.299629859
 30
0.0
 42
0.414213562373
  0
VERTEX
  8
0
 10
-20.2198752955
 20
46.2848833897
 30
0.0
  0
VERTEX
  8
0
 10
-20.2198752955
 20
46.2055973398
 30
0.0
 42
-0.414213562373
  0
VERTEX
  8
0
 10
-20.2413000512
 20
46.1841725841
 30
0.0
  0
VERTEX
  8
0
 10
-20.9105913898
 20
46.1841725841
 30
0.0
 42
-0.414213562373
  0
VERTEX
  8
0
 10
-20.9268442476
 20
46.2004254419
 30
0.0
  0
VERTEX
  8
0
 10
-20.9268442476
 20
46.2886925426
 30
0.0
 42
0.414213562373
  0
VERTEX
  8
0
 10
-20.9321396664
 20
46.2939879613
 30
0.0
  0
VERTEX
  8
0
 10
-21.6248379089
 20
46.2939879613
 30
0.0
 42
0.412117737263
  0
VERTEX
  8
0
 10
-21.9043308276
 20
46.0124864235
 30
0.0
  0
VERTEX
  8
0
 10
-21.9043308276
 20
44.2650439058
 30
0.0
 42
-0.414213562373
  0
VERTEX
  8
0
 10
-22.2284996686
 20
43.9408750648
 30
0.0
  0
VERTEX
  8
0
 10
-28.2392208097
 20
43.9408750648
 30
0.0
 42
0.414213562373
  0
VERTEX
  8
0
 10
-28.9905038166
 20
43.1895920579
 30
0.0
  0
VERTEX
  8
0
 10
-28.9905038166
 20
39.267467432
 30
0.0
 42
0.414213562373
  0
VERTEX
  8
0
 10
-28.3448073938
 20
38.6217710093
 30
0.0
  0
VERTEX
  8
0
 10
-13.8874757086
 20
38.6217710093
 30
0.0
 42
0.414213562373
  0
VERTEX
  8
0
 10
-13.2417602994
 20
39.2674864186
 30
0.0
  0
VERTEX
  8
0
 10
-13.2417602994
 20
43.185358937
 30
0.0
 42
0.414213562373
  0
VERTEX
  8
0
 10
-13.9937696083
 20
43.9373682459
 30
0.0
  0
SEQEND
  8
0
  0
POLYLINE
  8
0
 62
7
 70
1
 66
1
 10
0.0
 20
0.0
 30
0.0
  0
VERTEX
  8
0
 10
-20.9105913898
 20
45.8087153358
 30
0.0
  0
VERTEX
  8
0
 10
-20.2413000512
 20
45.8087153358
 30
0.0
  0
VERTEX
  8
0
 10
-20.2413000512
 20
45.6709200602
 30
0.0
  0
VERTEX
  8
0
 10
-20.9105913898
 20
45.6709200602
 30
0.0
  0
SEQEND
  8
0
  0
POLYLINE
  8
0
 62
7
 70
1
 66
1
 10
0.0
 20
0.0
 30
0.0
  0
VERTEX
  8
0
 10
-20.9105913898
 20
44.3342215007
 30
0.0
  0
VERTEX
  8
0
 10
-20.2413000512
 20
44.3342215007
 30
0.0
  0
VERTEX
  8
0
 10
-20.2413000512
 20
44.1964262251
 30
0.0
  0
VERTEX
  8
0
 10
-20.9105913898
 20
44.1964262251
 30
0.0
  0
SEQEND
  8
0
  0
POLYLINE
  8
0
 62
7
 70
1
 66
1
 10
0.0
 20
0.0
 30
0.0
  0
VERTEX
  8
0
 10
-28.655511811
 20
42.3948199655
 30
0.0
  0
VERTEX
  8
0
 10
-28.5374015748
 20
42.3948199655
 30
0.0
  0
VERTEX
  8
0
 10
-28.5374015748
 20
39.2452136663
 30
0.0
  0
VERTEX
  8
0
 10
-28.655511811
 20
39.2452136663
 30
0.0
  0
SEQEND
  8
0
  0
POLYLINE
  8
0
 62
7
 70
1
 66
1
 10
0.0
 20
0.0
 30
0.0
  0
VERTEX
  8
0
 10
-23.5388104724
 20
40.0787401575
 30
0.0
  0
VERTEX
  8
0
 10
-21.476937559
 20
40.0787401575
 30
0.0
 42
-0.414213562373
  0
VERTEX
  8
0
 10
-21.4212598425
 20
40.0230624409
 30
0.0
  0
VERTEX
  8
0
 10
-21.4212598425
 20
39.7328430709
 30
0.0
 42
-0.414213562373
  0
VERTEX
  8
0
 10
-21.4690635433
 20
39.6850393701
 30
0.0
  0
VERTEX
  8
0
 10
-23.5309364567
 20
39.6850393701
 30
0.0
 42
-0.414213562373
  0
VERTEX
  8
0
 10
-23.5866141732
 20
39.7407170866
 30
0.0
  0
VERTEX
  8
0
 10
-23.5866141732
 20
40.0309364567
 30
0.0
 42
-0.414213562373
  0
SEQEND
  8
0
  0
POLYLINE
  8
0
 62
7
 70
1
 66
1
 10
0.0
 20
0.0
 30
0.0
  0
VERTEX
  8
0
 10
-18.2421259842
 20
39.1373880461
 30
0.0
  0
VERTEX
  8
0
 10
-18.2421259842
 20
41.2724052902
 30
0.0
 42
-0.414213562373
  0
VERTEX
  8
0
 10
-17.9080598031
 20
41.6064714713
 30
0.0
  0
VERTEX
  8
0
 10
-16.1667433464
 20
41.6064714713
 30
0.0
 42
-0.414213562373
  0
VERTEX
  8
0
 10
-15.8799212598
 20
41.3196493847
 30
0.0
  0
VERTEX
  8
0
 10
-15.8799212598
 20
39.1846321406
 30
0.0
 42
-0.414213562373
  0
VERTEX
  8
0
 10
-16.2139874409
 20
38.8505659595
 30
0.0
  0
VERTEX
  8
0
 10
-17.9553038976
 20
38.8505659595
 30
0.0
 42
-0.414213562373
  0
SEQEND
  8
0
  0
POLYLINE
  8
0
 62
7
 70
1
 66
1
 10
0.0
 20
0.0
 30
0.0
  0
VERTEX
  8
0
 10
-21.7066929134
 20
46.062992126
 30
0.0
  0
VERTEX
  8
0
 10
-19.344488189
 20
46.062992126
 30
0.0
  0
VERTEX
  8
0
 10
-19.344488189
 20
45.9448818898
 30
0.0
  0
VERTEX
  8
0
 10
-21.7066929134
 20
45.9448818898
 30
0.0
  0
SEQEND
  8
0
  0
ENDBLK
  0
ENDSEC
  0
SECTION
  2
ENTITIES
  0
INSERT
  2
SCALE
  8
0
 62
7
 10
0.0
 20
0.0
 30
0.0
  0
ENDSEC
  0
EOF
